<?xml version="1.0" encoding="UTF-8" standalone="no"?>
<!-- Created with Inkscape (http://www.inkscape.org/) -->

<svg
   xmlns:dc="http://purl.org/dc/elements/1.1/"
   xmlns:cc="http://creativecommons.org/ns#"
   xmlns:rdf="http://www.w3.org/1999/02/22-rdf-syntax-ns#"
   xmlns:svg="http://www.w3.org/2000/svg"
   xmlns="http://www.w3.org/2000/svg"
   xmlns:sodipodi="http://sodipodi.sourceforge.net/DTD/sodipodi-0.dtd"
   xmlns:inkscape="http://www.inkscape.org/namespaces/inkscape"
   width="62.177052mm"
   height="62.177052mm"
   viewBox="0 0 62.177052 62.177052"
   version="1.1"
   id="svg8"
   inkscape:version="0.92.2 5c3e80d, 2017-08-06"
   sodipodi:docname="u23 17 logo.svg">
  <defs
     id="defs2" />
  <sodipodi:namedview
     id="base"
     pagecolor="#000000"
     bordercolor="#666666"
     borderopacity="1.0"
     inkscape:pageopacity="0"
     inkscape:pageshadow="2"
     inkscape:zoom="1"
     inkscape:cx="117.49994"
     inkscape:cy="117.49994"
     inkscape:document-units="mm"
     inkscape:current-layer="layer1"
     showgrid="false"
     inkscape:window-width="1438"
     inkscape:window-height="878"
     inkscape:window-x="0"
     inkscape:window-y="16"
     inkscape:window-maximized="1"
     inkscape:snap-page="true"
     showborder="true"
     borderlayer="true"
     fit-margin-top="0"
     fit-margin-left="0"
     fit-margin-right="0"
     fit-margin-bottom="0">
    <inkscape:grid
       type="xygrid"
       id="grid4504"
       originx="-23.702935"
       originy="-20.29543" />
  </sodipodi:namedview>
  <metadata
     id="metadata5">
    <rdf:RDF>
      <cc:Work
         rdf:about="">
        <dc:format>image/svg+xml</dc:format>
        <dc:type
           rdf:resource="http://purl.org/dc/dcmitype/StillImage" />
        <dc:title></dc:title>
      </cc:Work>
    </rdf:RDF>
  </metadata>
  <g
     inkscape:label="Layer 1"
     inkscape:groupmode="layer"
     id="layer1"
     transform="translate(-23.702935,-214.52752)">
    <g
       id="g4649"
       transform="translate(-51.703345,106.7046)">
      <g
         style="fill:#e6e6e6"
         transform="translate(0,-2.5431315e-5)"
         id="g4549">
        <path
           style="opacity:1;fill:#e6e6e6;fill-opacity:1;stroke:none;stroke-width:6;stroke-linecap:round;stroke-linejoin:round;stroke-miterlimit:4;stroke-dasharray:none;stroke-dashoffset:0;stroke-opacity:1"
           d="m 154.58594,181.24609 v 10 h -9.24414 c -0.41877,0 -0.75586,0.33709 -0.75586,0.75586 v 9.24414 h -10 v 5 h 10 v 5 h -10 v 5 h 10 v 5 h -10 v 5 h 10 v 5 h -10 v 5 h 10 v 9.24414 c 0,0.41878 0.33709,0.75586 0.75586,0.75586 h 9.24414 v 10 h 5 v -10 h 5 v 10 h 5 v -10 h 5 v 10 h 5 v -10 h 5 v 10 h 5 v -10 h 9.24414 c 0.41877,0 0.75586,-0.33708 0.75586,-0.75586 v -9.24414 h 10 v -5 h -10 v -5 h 10 v -5 h -10 v -5 h 10 v -5 h -10 v -5 h 10 v -5 h -10 v -9.24414 c 0,-0.41877 -0.33709,-0.75586 -0.75586,-0.75586 h -9.24414 v -10 h -5 v 10 h -5 v -10 h -5 v 10 h -5 v -10 h -5 v 10 h -5 v -10 z"
           transform="matrix(0.26458333,0,0,0.26458333,51.703345,90.295425)"
           id="rect4506"
           inkscape:connector-curvature="0" />
        <g
           id="g4785"
           style="fill:none;stroke:#333333;stroke-width:0.5291667;stroke-linecap:square;stroke-miterlimit:4;stroke-dasharray:none"
           transform="translate(-0.66144811,-0.66145858)">
          <path
             inkscape:connector-curvature="0"
             id="path4749"
             d="m 92.604159,151.47916 v 2.64584 h 2.64584 v -2.64584"
             style="fill:none;fill-rule:evenodd;stroke:#333333;stroke-width:0.5291667;stroke-linecap:square;stroke-linejoin:miter;stroke-miterlimit:4;stroke-dasharray:none;stroke-opacity:1" />
          <path
             inkscape:connector-curvature="0"
             id="path4751"
             d="m 96.572909,148.83333 h 2.64584 v 2.64583 h -2.64584 v 2.64584 h 2.64584"
             style="fill:none;fill-rule:evenodd;stroke:#333333;stroke-width:0.5291667;stroke-linecap:square;stroke-linejoin:miter;stroke-miterlimit:4;stroke-dasharray:none;stroke-opacity:1" />
          <path
             inkscape:connector-curvature="0"
             id="path4753"
             d="m 100.54166,148.83333 h 2.64584 v 5.29167 h -2.64584"
             style="fill:none;fill-rule:evenodd;stroke:#333333;stroke-width:0.5291667;stroke-linecap:square;stroke-linejoin:miter;stroke-miterlimit:4;stroke-dasharray:none;stroke-opacity:1" />
          <path
             inkscape:connector-curvature="0"
             id="path4755"
             d="m 103.1875,151.47916 h -2.64584"
             style="fill:none;fill-rule:evenodd;stroke:#333333;stroke-width:0.5291667;stroke-linecap:square;stroke-linejoin:miter;stroke-miterlimit:4;stroke-dasharray:none;stroke-opacity:1" />
        </g>
      </g>
      <g
         style="fill:#4d4d4d"
         id="g4563">
        <path
           style="fill:#004455;fill-rule:evenodd;stroke:none;stroke-width:0.26458332px;stroke-linecap:butt;stroke-linejoin:miter;stroke-opacity:1"
           d="m 107.15625,140.89583 1.32292,1.32292 V 154.125 l 3.96875,-3.96875 v -9.26042 z"
           id="path4551"
           inkscape:connector-curvature="0"
           sodipodi:nodetypes="cccccc" />
        <path
           style="fill:#006680;fill-rule:evenodd;stroke:none;stroke-width:0.26458332px;stroke-linecap:butt;stroke-linejoin:miter;stroke-opacity:1"
           d="m 113.77083,140.89583 v 9.26042 l -6.61458,6.61458 -2.64583,2.64584 v 5.29164 l 3.96875,-3.96873 v -3.96875 L 119.0625,146.1875 v -3.96875 l -1.32292,-1.32292 z"
           id="path4553"
           inkscape:connector-curvature="0"
           sodipodi:nodetypes="ccccccccccc" />
        <path
           style="fill:#0088aa;fill-rule:evenodd;stroke:none;stroke-width:0.26458332px;stroke-linecap:butt;stroke-linejoin:miter;stroke-opacity:1"
           d="m 120.38542,142.21876 v 3.96874 l -10.58334,10.58333 v 3.96875 l -2.64583,2.64583 v 5.29167 l 3.96875,-3.96875 v -7.9375 l 2.64583,-2.64583 h 3.96875 l 5.29167,-5.29167 H 127 l 5.29167,-5.29166 -1.32292,-1.32292 z"
           id="path4555"
           inkscape:connector-curvature="0"
           sodipodi:nodetypes="ccccccccccccccc" />
        <path
           style="fill:#006680;fill-rule:evenodd;stroke:none;stroke-width:0.26458332px;stroke-linecap:butt;stroke-linejoin:miter;stroke-opacity:1"
           d="M 103.1875,159.41667 H 91.281253 l -1.322918,-1.32292 -2e-6,2.64583 3.96875,3.96875 h 9.260417 z"
           id="path4557"
           inkscape:connector-curvature="0"
           sodipodi:nodetypes="ccccccc" />
        <path
           sodipodi:nodetypes="cccccccccc"
           inkscape:connector-curvature="0"
           id="path4607"
           d="M 132.29167,144.86458 127,150.15625 h -3.96875 l -5.29167,5.29167 h -2.64583 l 2.64583,2.64583 H 127 l 10.58333,-10.58333 -2.64583,-2.64584 z"
           style="fill:#00aad4;fill-rule:evenodd;stroke:none;stroke-width:0.26458332px;stroke-linecap:butt;stroke-linejoin:miter;stroke-opacity:1" />
        <path
           style="fill:#00aad4;fill-rule:evenodd;stroke:none;stroke-width:0.26458332px;stroke-linecap:butt;stroke-linejoin:miter;stroke-opacity:1"
           d="m 91.281251,163.38539 2.645834,2.64583 h 10.583335 l 1.32292,-1.32291 -1e-5,5.29166 H 93.927085 l -2.645834,-2.64583 z"
           id="path4614"
           inkscape:connector-curvature="0"
           sodipodi:nodetypes="cccccccc" />
      </g>
      <g
         id="use4584"
         style="fill:#4d4d4d"
         transform="matrix(0,-1,-1,0,245.40625,245.40625)">
        <path
           sodipodi:nodetypes="cccccc"
           inkscape:connector-curvature="0"
           id="path848"
           d="m 107.15625,140.89583 1.32292,1.32292 V 154.125 l 3.96875,-3.96875 v -9.26042 z"
           style="fill:#004455;fill-rule:evenodd;stroke:none;stroke-width:0.26458332px;stroke-linecap:butt;stroke-linejoin:miter;stroke-opacity:1" />
        <path
           sodipodi:nodetypes="ccccccccccc"
           inkscape:connector-curvature="0"
           id="path850"
           d="m 113.77083,140.89583 v 9.26042 l -6.61458,6.61458 -2.64583,2.64584 v 5.29164 l 3.96875,-3.96873 v -3.96875 L 119.0625,146.1875 v -3.96875 l -1.32292,-1.32292 z"
           style="fill:#006680;fill-rule:evenodd;stroke:none;stroke-width:0.26458332px;stroke-linecap:butt;stroke-linejoin:miter;stroke-opacity:1" />
        <path
           sodipodi:nodetypes="ccccccccccccccc"
           inkscape:connector-curvature="0"
           id="path852"
           d="m 120.38542,142.21876 v 3.96874 l -10.58334,10.58333 v 3.96875 l -2.64583,2.64583 v 5.29167 l 3.96875,-3.96875 v -7.9375 l 2.64583,-2.64583 h 3.96875 l 5.29167,-5.29167 H 127 l 5.29167,-5.29166 -1.32292,-1.32292 z"
           style="fill:#0088aa;fill-rule:evenodd;stroke:none;stroke-width:0.26458332px;stroke-linecap:butt;stroke-linejoin:miter;stroke-opacity:1" />
        <path
           sodipodi:nodetypes="ccccccc"
           inkscape:connector-curvature="0"
           id="path854"
           d="M 103.1875,159.41667 H 91.281253 l -1.322918,-1.32292 -2e-6,2.64583 3.96875,3.96875 h 9.260417 z"
           style="fill:#006680;fill-rule:evenodd;stroke:none;stroke-width:0.26458332px;stroke-linecap:butt;stroke-linejoin:miter;stroke-opacity:1" />
        <path
           style="fill:#00aad4;fill-rule:evenodd;stroke:none;stroke-width:0.26458332px;stroke-linecap:butt;stroke-linejoin:miter;stroke-opacity:1"
           d="M 132.29167,144.86458 127,150.15625 h -3.96875 l -5.29167,5.29167 h -2.64583 l 2.64583,2.64583 H 127 l 10.58333,-10.58333 -2.64583,-2.64584 z"
           id="path856"
           inkscape:connector-curvature="0"
           sodipodi:nodetypes="cccccccccc" />
        <path
           sodipodi:nodetypes="cccccccc"
           inkscape:connector-curvature="0"
           id="path858"
           d="m 91.281251,163.38539 2.645834,2.64583 h 10.583335 l 1.32292,-1.32291 -1e-5,5.29166 H 93.927085 l -2.645834,-2.64583 z"
           style="fill:#00aad4;fill-rule:evenodd;stroke:none;stroke-width:0.26458332px;stroke-linecap:butt;stroke-linejoin:miter;stroke-opacity:1" />
      </g>
    </g>
  </g>
</svg>
